<svg width="640" height="180" viewBox="0 0 640 180" fill="none" xmlns="http://www.w3.org/2000/svg">
	<defs>
		<linearGradient id="mist-plus-mark" x1="72" y1="28" x2="72" y2="142" gradientUnits="userSpaceOnUse">
			<stop stop-color="#E3FFF0" />
			<stop offset="0.45" stop-color="#8FFFD2" />
			<stop offset="1" stop-color="#42D4B2" />
		</linearGradient>
	</defs>
	<path d="M72 146C62 112 45 90 21 70C4 56 -4 38 0 18C9 40 30 44 43 68C52 83 59 99 72 121C85 99 92 83 101 68C114 44 135 40 144 18C148 38 140 56 123 70C99 90 82 112 72 146Z" fill="url(#mist-plus-mark)" />
	<path d="M18 132C-7 109 -13 78 7 55C4 76 25 83 33 103C42 126 45 121 18 132Z" fill="url(#mist-plus-mark)" opacity="0.82" />
	<path d="M126 132C151 109 157 78 137 55C140 76 119 83 111 103C102 126 99 121 126 132Z" fill="url(#mist-plus-mark)" opacity="0.82" />
	<text x="182" y="112" fill="currentColor" font-family="Montserrat, Avenir Next, Segoe UI, sans-serif" font-size="76" font-weight="850" letter-spacing="2">MIST</text>
	<path d="M518 64V38H548V64H574V94H548V120H518V94H492V64H518Z" fill="#8FFFD2" />
</svg>
